<?xml version="1.0" standalone="no"?>
<!DOCTYPE svg PUBLIC "-//W3C//DTD SVG 20010904//EN"
 "http://www.w3.org/TR/2001/REC-SVG-20010904/DTD/svg10.dtd">
<svg version="1.0" xmlns="http://www.w3.org/2000/svg"
 width="1002.000000pt" height="610.000000pt" viewBox="0 0 1002.000000 610.000000"
 preserveAspectRatio="xMidYMid meet">

<g transform="translate(0.000000,610.000000) scale(0.100000,-0.100000)"
fill="#000000" stroke="none">
<path d="M4845 5675 c-228 -48 -417 -139 -581 -281 -57 -49 -170 -178 -221
-250 -39 -56 -110 -208 -142 -303 -53 -157 -76 -402 -51 -533 6 -29 15 -78 21
-108 21 -112 83 -269 150 -379 82 -137 257 -317 376 -387 17 -11 53 -32 80
-48 94 -55 202 -95 363 -133 78 -19 376 -20 455 -2 128 30 305 93 305 110 0
13 -31 19 -100 19 -82 0 -207 23 -275 50 l-50 20 75 -8 c136 -13 390 -7 471
13 89 21 122 42 217 138 96 98 97 120 2 72 -83 -42 -242 -86 -375 -104 -98
-14 -334 -14 -384 -2 -20 5 -65 14 -101 20 -142 23 -354 110 -492 203 -56 38
-90 70 -52 50 144 -76 370 -127 519 -116 173 12 421 67 513 113 20 10 48 22
62 26 14 4 52 20 85 36 113 53 202 88 307 123 151 49 226 89 233 124 3 15 10
43 14 62 26 106 35 234 24 363 -15 176 -50 302 -124 451 -71 140 -122 210
-238 327 -170 169 -405 293 -636 334 -98 18 -366 18 -450 0z m347 -270 c37 -7
98 -28 135 -45 l68 -31 -65 8 c-228 28 -422 -30 -603 -180 -89 -74 -178 -214
-218 -347 -30 -97 -33 -281 -6 -380 80 -299 325 -515 625 -551 79 -9 118 -10
166 -1 75 14 114 15 100 3 -5 -4 -52 -25 -104 -46 l-95 -38 -160 -1 c-154 -1
-163 0 -255 31 -228 76 -391 214 -494 418 -58 116 -80 211 -80 350 1 141 13
211 56 320 97 244 321 434 578 489 85 19 268 19 352 1z m271 -234 c163 -78
282 -228 328 -415 21 -84 21 -96 9 -181 -11 -81 -33 -158 -49 -177 -4 -5 -7
29 -8 75 -1 104 -15 163 -60 257 -68 141 -203 248 -361 286 -242 57 -510 -76
-607 -301 -37 -88 -47 -141 -48 -250 0 -60 -2 -101 -5 -90 -2 11 -8 25 -12 30
-23 28 -40 126 -40 223 0 175 51 303 165 418 148 148 312 205 516 178 65 -9
108 -22 172 -53z"/>
<path d="M3695 2530 c-94 -9 -111 -16 -133 -53 -46 -77 -60 -276 -68 -1012 -9
-680 12 -1062 60 -1110 8 -8 28 -18 43 -21 48 -10 540 39 684 67 75 15 95 33
104 92 9 61 -12 103 -87 172 -66 61 -103 75 -73 28 10 -16 25 -37 35 -48 26
-30 41 -63 31 -69 -8 -5 -117 53 -186 99 -23 16 -46 20 -105 20 l-75 0 -5 97
-5 97 -100 100 c-55 55 -101 105 -103 111 -9 25 34 5 95 -45 80 -65 106 -68
111 -14 2 23 -2 40 -12 49 -21 16 -20 30 1 45 11 8 17 28 19 56 0 24 2 47 3
51 3 14 69 28 140 29 87 0 217 21 233 37 6 6 12 68 15 141 4 128 4 130 -19
145 -18 12 -42 15 -94 12 -38 -3 -116 -6 -174 -8 l-105 -3 3 140 c4 221 22
413 40 427 10 9 76 14 219 18 179 4 206 7 217 22 16 21 37 166 39 263 l2 70
-340 1 c-187 1 -371 -2 -410 -6z"/>
<path d="M4970 2521 c-108 -36 -135 -53 -236 -155 -94 -94 -104 -107 -124
-171 -33 -99 -39 -271 -14 -380 48 -213 229 -444 482 -614 92 -62 202 -169
224 -217 34 -78 2 -152 -86 -200 -34 -19 -151 -20 -205 -3 -61 20 -118 66
-142 114 -33 66 -75 89 -148 82 -67 -7 -145 -39 -183 -75 -46 -43 -34 -126 39
-264 42 -81 112 -154 194 -202 158 -94 388 -113 546 -45 45 19 54 38 28 59
-39 33 -3 40 48 10 27 -16 39 -18 58 -10 96 42 222 198 260 321 35 112 21 282
-32 376 -75 133 -160 223 -320 334 -182 127 -285 232 -339 346 -24 51 -27 166
-6 216 19 46 66 83 126 97 66 16 114 4 209 -51 l72 -41 42 16 c70 27 202 110
205 129 10 50 -44 128 -144 211 -123 102 -223 136 -392 135 -76 0 -123 -5
-162 -18z"/>
<path d="M5922 2192 c-47 -9 -87 -23 -92 -32 -5 -8 -7 -33 -5 -55 18 -171 28
-243 37 -259 8 -16 18 -17 61 -12 172 20 164 21 205 -8 57 -39 82 -90 82 -168
0 -55 -6 -76 -45 -156 -25 -50 -45 -103 -45 -117 0 -30 -15 -33 -30 -5 -17 31
-61 26 -103 -13 -56 -51 -70 -112 -43 -187 10 -28 10 -42 -1 -74 -20 -59 3
-79 116 -102 149 -31 201 -75 201 -171 0 -46 -4 -58 -33 -89 -29 -32 -39 -36
-95 -41 -42 -4 -91 0 -148 12 -47 10 -86 16 -88 14 -9 -9 -14 -326 -6 -339 7
-11 37 -13 142 -11 292 6 365 33 469 172 64 87 93 155 108 259 14 92 8 138
-29 210 -18 34 -147 165 -184 185 -28 16 -16 40 69 135 73 82 125 168 125 207
0 11 4 23 9 29 17 18 51 153 51 201 0 146 -118 313 -276 388 -79 38 -79 38
-224 41 -108 3 -166 -1 -228 -14z"/>
<path d="M4304 737 c-5 -14 80 -110 90 -100 3 3 6 26 6 50 0 37 -4 45 -26 53
-35 14 -64 12 -70 -3z"/>
</g>
</svg>
