<svg id="svg" version="1.1" xmlns="http://www.w3.org/2000/svg" xmlns:xlink="http://www.w3.org/1999/xlink" width="600" height="600" viewBox="0, 0, 400,400"><g id="svgg"><path id="path0" d="M192.215 176.465 C 192.095 176.979,191.952 186.895,191.898 198.500 L 191.800 219.600 206.510 219.600 L 221.220 219.600 221.123 216.142 C 220.985 211.218,221.730 211.515,209.931 211.670 L 199.979 211.800 200.090 206.000 L 200.200 200.200 208.900 200.092 L 217.600 199.984 217.600 196.800 L 217.600 193.616 208.900 193.508 L 200.200 193.400 200.200 188.400 L 200.200 183.400 210.116 183.293 L 220.032 183.186 219.916 179.893 L 219.800 176.600 206.634 176.494 C 197.989 176.425,193.291 176.241,192.951 175.959 C 192.557 175.632,192.381 175.753,192.215 176.465 M241.800 176.021 C 235.743 176.308,234.541 176.522,232.400 177.699 C 229.521 179.281,228.415 180.225,228.178 181.300 C 228.045 181.905,227.771 182.400,227.568 182.400 C 227.366 182.400,227.200 182.839,227.200 183.376 C 227.200 183.913,227.020 184.464,226.800 184.600 C 226.251 184.939,226.285 190.682,226.838 191.024 C 227.080 191.173,227.201 191.813,227.108 192.447 C 226.999 193.190,227.115 193.600,227.436 193.600 C 227.709 193.600,228.161 194.115,228.439 194.744 C 228.933 195.859,231.339 197.656,233.786 198.736 C 234.454 199.031,235.313 199.436,235.695 199.636 C 236.077 199.836,236.910 200.000,237.546 200.000 C 238.182 200.000,238.915 200.257,239.176 200.571 C 239.490 200.950,240.095 201.069,240.974 200.927 C 241.742 200.802,242.414 200.898,242.573 201.156 C 242.724 201.400,243.281 201.600,243.811 201.600 C 244.837 201.600,247.288 202.830,248.321 203.864 C 250.413 205.956,248.353 212.000,245.549 212.000 C 244.943 212.000,244.336 212.180,244.200 212.400 C 244.064 212.620,243.074 212.800,242.000 212.800 C 240.926 212.800,239.936 212.620,239.800 212.400 C 239.664 212.180,238.933 212.000,238.176 212.000 C 237.419 212.000,236.800 211.820,236.800 211.600 C 236.800 211.380,236.440 211.200,236.000 211.200 C 235.560 211.200,235.200 211.020,235.200 210.800 C 235.200 210.580,234.940 210.400,234.622 210.400 C 234.304 210.400,233.122 209.463,231.994 208.317 L 229.944 206.234 227.984 208.300 C 226.906 209.436,225.912 210.813,225.774 211.361 C 225.487 212.505,227.019 215.600,227.874 215.600 C 228.163 215.600,228.742 215.942,229.159 216.359 C 229.577 216.777,230.475 217.241,231.155 217.390 C 231.835 217.539,232.494 217.828,232.619 218.031 C 232.745 218.234,233.292 218.400,233.836 218.400 C 234.380 218.400,234.926 218.664,235.050 218.986 C 235.210 219.403,235.872 219.563,237.338 219.540 C 239.529 219.505,243.952 219.495,246.597 219.518 C 247.476 219.526,248.299 219.363,248.427 219.157 C 248.554 218.950,249.050 218.706,249.529 218.614 C 250.007 218.522,250.799 218.166,251.288 217.823 C 251.778 217.480,252.454 217.200,252.790 217.200 C 253.386 217.200,255.600 215.148,255.600 214.596 C 255.600 214.445,255.845 213.754,256.144 213.060 C 257.415 210.113,257.549 209.541,257.621 206.741 C 257.692 204.026,257.511 203.193,256.250 200.405 C 255.637 199.049,252.564 196.000,251.811 196.000 C 251.475 196.000,251.200 195.820,251.200 195.600 C 251.200 195.380,250.761 195.200,250.224 195.200 C 249.687 195.200,249.136 195.020,249.000 194.800 C 248.864 194.580,248.245 194.400,247.625 194.400 C 247.005 194.400,246.280 194.138,246.014 193.817 C 245.702 193.441,245.133 193.313,244.414 193.457 C 243.800 193.580,242.871 193.447,242.349 193.163 C 241.827 192.878,240.923 192.692,240.340 192.749 C 239.756 192.805,239.161 192.660,239.016 192.426 C 238.871 192.192,238.371 192.000,237.905 192.000 C 236.434 192.000,234.400 189.361,234.397 187.450 C 234.394 185.470,236.640 183.114,238.400 183.249 C 238.950 183.292,239.881 183.096,240.469 182.813 C 241.290 182.419,241.837 182.404,242.829 182.750 C 243.538 182.998,244.612 183.200,245.214 183.200 C 246.479 183.200,247.607 183.739,249.700 185.344 C 251.479 186.709,251.982 186.577,253.598 184.319 C 254.274 183.373,255.120 182.250,255.477 181.822 C 256.485 180.613,251.539 176.800,248.962 176.800 C 248.374 176.800,248.000 176.567,248.000 176.200 C 248.000 175.870,247.865 175.635,247.700 175.678 C 247.535 175.722,244.880 175.876,241.800 176.021 M272.106 176.300 C 272.001 176.575,271.579 176.800,271.169 176.800 C 269.873 176.800,265.680 179.391,264.125 181.154 C 263.102 182.313,263.203 182.579,265.704 185.300 C 267.814 187.597,267.785 187.595,269.493 185.600 C 270.246 184.720,271.118 184.000,271.431 184.000 C 271.744 184.000,272.000 183.820,272.000 183.600 C 272.000 183.380,272.349 183.200,272.776 183.200 C 273.203 183.200,273.664 183.020,273.800 182.800 C 273.936 182.580,275.196 182.400,276.600 182.400 C 278.004 182.400,279.264 182.580,279.400 182.800 C 279.536 183.020,279.907 183.200,280.224 183.200 C 282.080 183.200,284.277 188.487,282.800 189.400 C 282.580 189.536,282.400 189.926,282.400 190.266 C 282.400 190.906,280.939 192.228,279.267 193.100 C 278.710 193.391,276.820 193.600,274.754 193.600 L 271.200 193.600 271.200 197.050 L 271.200 200.501 275.900 200.316 C 278.888 200.199,280.875 200.290,281.355 200.566 C 282.714 201.348,284.056 202.877,283.851 203.411 C 283.741 203.699,283.909 204.033,284.225 204.154 C 284.875 204.404,285.022 207.174,284.447 208.305 C 284.252 208.687,283.883 209.450,283.627 210.000 C 281.889 213.724,270.400 213.185,270.400 209.380 C 270.400 209.061,270.220 208.800,270.000 208.800 C 269.780 208.800,269.600 208.440,269.600 208.000 C 269.600 207.560,269.400 207.200,269.157 207.200 C 268.883 207.200,268.810 206.816,268.964 206.200 C 269.172 205.374,269.071 205.200,268.384 205.200 C 267.927 205.200,267.665 205.381,267.802 205.603 C 267.939 205.824,267.724 206.108,267.325 206.232 C 266.926 206.357,266.287 206.625,265.905 206.829 C 265.523 207.033,264.938 207.200,264.605 207.200 C 264.272 207.200,264.000 207.380,264.000 207.600 C 264.000 207.820,263.640 208.000,263.200 208.000 C 262.360 208.000,262.304 208.142,262.240 210.400 C 262.195 211.966,262.367 212.227,265.470 215.330 C 268.585 218.446,269.038 218.768,269.965 218.525 C 270.490 218.388,270.876 218.533,271.027 218.926 C 271.212 219.409,271.911 219.535,274.271 219.511 C 276.438 219.488,277.379 219.636,277.639 220.040 C 277.942 220.510,278.056 220.513,278.351 220.056 C 278.594 219.679,279.519 219.523,281.351 219.551 C 282.856 219.573,284.000 219.420,284.000 219.195 C 284.000 218.978,284.521 218.800,285.157 218.800 C 285.838 218.800,286.413 218.542,286.554 218.175 C 286.686 217.831,286.962 217.653,287.168 217.780 C 287.666 218.088,291.430 214.353,291.280 213.700 C 291.215 213.419,291.446 213.080,291.793 212.947 C 292.180 212.799,292.337 212.430,292.198 211.995 C 292.074 211.604,292.204 211.040,292.486 210.742 C 293.193 209.996,293.205 202.887,292.500 202.617 C 292.225 202.511,292.000 202.074,292.000 201.646 C 292.000 201.217,291.865 200.807,291.700 200.733 C 291.535 200.660,290.896 199.925,290.280 199.100 C 289.663 198.275,288.898 197.600,288.580 197.600 C 288.261 197.600,288.000 197.420,288.000 197.200 C 288.000 196.980,287.662 196.800,287.249 196.800 C 285.427 196.800,285.485 195.723,287.402 193.955 C 290.667 190.945,292.437 186.141,290.987 184.224 C 290.664 183.796,290.400 183.118,290.400 182.716 C 290.400 181.718,288.524 178.819,287.683 178.516 C 287.307 178.381,286.522 177.939,285.938 177.535 C 285.354 177.131,284.494 176.800,284.026 176.800 C 283.558 176.800,283.089 176.575,282.983 176.300 C 282.843 175.935,281.373 175.800,277.545 175.800 C 273.716 175.800,272.246 175.935,272.106 176.300 " stroke="none" fill="#f7f9fa" fill-rule="evenodd"></path><path id="path1" d="M107.354 165.285 L 105.527 166.970 105.663 172.541 C 105.788 177.621,105.871 178.152,106.600 178.557 C 107.040 178.800,109.373 180.935,111.784 183.300 C 114.195 185.665,116.379 187.600,116.637 187.600 C 117.181 187.600,119.600 189.978,119.600 190.513 C 119.600 190.878,121.418 192.881,124.900 196.354 C 128.339 199.783,128.239 200.006,119.100 209.229 C 114.865 213.503,110.927 217.305,110.349 217.677 C 109.771 218.049,109.174 218.859,109.023 219.477 C 108.871 220.095,108.024 221.230,107.139 222.000 L 105.531 223.400 105.577 229.956 C 105.630 237.543,105.524 237.200,107.810 237.200 C 109.965 237.200,110.336 236.889,121.000 226.123 C 137.191 209.777,142.362 204.584,142.871 204.156 C 144.182 203.056,146.000 200.660,146.000 200.034 C 146.000 199.222,140.411 192.921,138.846 191.970 C 138.252 191.608,137.427 190.792,137.013 190.156 C 135.819 188.321,131.544 183.991,129.881 182.933 C 129.045 182.401,128.246 181.659,128.104 181.283 C 127.962 180.907,126.934 179.700,125.818 178.600 C 124.703 177.500,122.595 175.340,121.132 173.800 C 119.670 172.260,117.782 170.329,116.937 169.509 C 116.092 168.690,114.929 167.520,114.354 166.909 C 110.758 163.096,109.936 162.906,107.354 165.285 M142.993 164.681 C 140.297 166.511,140.028 167.039,140.013 170.538 C 139.996 174.654,140.913 177.836,142.373 178.728 C 142.978 179.098,144.405 180.521,145.544 181.891 C 146.683 183.262,149.047 185.582,150.798 187.048 C 152.549 188.513,154.079 190.018,154.197 190.392 C 154.316 190.766,154.840 191.301,155.363 191.580 C 155.885 191.859,156.541 192.516,156.821 193.038 C 157.100 193.561,158.470 195.003,159.865 196.242 C 163.263 199.263,163.241 200.632,159.747 203.700 C 159.037 204.323,157.993 205.624,157.427 206.590 C 156.861 207.556,156.027 208.464,155.575 208.608 C 154.471 208.958,144.566 218.776,144.240 219.842 C 144.099 220.304,143.371 221.013,142.622 221.416 C 140.674 222.465,140.408 223.394,140.348 229.354 C 140.281 236.142,140.591 236.948,143.338 237.123 C 145.253 237.246,145.292 237.224,147.935 234.499 C 149.401 232.988,151.189 231.343,151.909 230.843 C 152.628 230.342,153.475 229.317,153.789 228.564 C 154.104 227.811,154.776 227.037,155.282 226.845 C 156.254 226.475,161.833 220.837,163.021 219.024 C 163.405 218.438,164.231 217.694,164.858 217.370 C 165.485 217.046,166.249 216.180,166.556 215.445 C 166.899 214.622,167.484 214.015,168.076 213.867 C 169.034 213.626,174.957 207.504,175.889 205.791 C 176.157 205.297,176.827 204.780,177.377 204.642 C 177.927 204.503,178.589 203.988,178.849 203.495 C 179.109 203.003,179.744 202.204,180.261 201.719 C 180.777 201.235,181.200 200.556,181.200 200.210 C 181.200 199.415,178.180 196.111,177.156 195.786 C 176.733 195.652,176.047 194.880,175.632 194.071 C 175.018 192.873,168.121 185.838,163.953 182.158 C 163.429 181.695,162.010 180.092,160.800 178.596 C 159.590 177.099,157.970 175.281,157.200 174.556 C 154.544 172.053,151.572 169.600,151.197 169.600 C 150.990 169.600,150.553 169.105,150.227 168.500 C 148.016 164.401,145.422 163.032,142.993 164.681 " stroke="none" fill="#07d7f9" fill-rule="evenodd"></path><path id="path2" d="M239.015 175.176 C 238.871 175.409,237.863 175.600,236.776 175.600 C 235.689 175.600,234.800 175.780,234.800 176.000 C 234.800 176.220,234.260 176.400,233.600 176.400 C 232.940 176.400,232.400 176.580,232.400 176.800 C 232.400 177.020,232.124 177.200,231.787 177.200 C 231.449 177.200,230.543 177.830,229.773 178.600 C 228.108 180.265,228.235 180.359,230.276 178.974 C 233.737 176.625,236.168 176.009,242.228 175.946 C 245.073 175.916,246.950 175.808,246.400 175.707 C 245.850 175.606,245.220 175.393,245.000 175.234 C 244.342 174.759,239.303 174.709,239.015 175.176 M274.800 175.171 C 274.800 175.375,274.485 175.624,274.100 175.724 C 273.715 175.825,275.290 175.907,277.600 175.907 C 279.910 175.907,281.440 175.821,281.000 175.715 C 280.560 175.609,280.029 175.360,279.820 175.161 C 279.318 174.685,274.800 174.693,274.800 175.171 M191.688 197.100 C 191.737 208.925,191.826 215.990,191.887 212.800 C 192.163 198.205,192.171 175.600,191.900 175.600 C 191.735 175.600,191.640 185.275,191.688 197.100 M193.034 175.994 C 193.273 176.233,198.630 176.430,206.614 176.494 L 219.800 176.600 219.916 179.893 L 220.032 183.186 210.116 183.293 L 200.200 183.400 200.200 188.400 L 200.200 193.400 208.900 193.508 L 217.600 193.616 217.600 196.800 L 217.600 199.984 208.900 200.092 L 200.200 200.200 200.089 206.100 L 199.979 212.000 200.889 211.994 C 201.523 211.990,201.642 211.887,201.279 211.657 C 200.894 211.413,200.810 210.501,200.957 208.152 C 201.067 206.406,201.016 204.749,200.844 204.471 C 200.672 204.193,200.637 203.329,200.766 202.551 L 201.000 201.136 209.252 201.182 C 218.798 201.236,218.000 201.657,218.000 196.567 L 218.000 193.200 209.627 193.200 C 199.909 193.200,200.754 193.690,201.003 188.200 C 201.093 186.220,201.174 184.375,201.183 184.100 C 201.196 183.714,203.391 183.600,210.776 183.600 C 216.043 183.600,220.445 183.450,220.558 183.267 C 221.119 182.359,221.287 177.510,220.790 176.581 L 220.265 175.600 206.452 175.600 C 197.374 175.600,192.775 175.735,193.034 175.994 M248.000 176.200 C 248.000 176.567,248.374 176.800,248.962 176.800 C 251.539 176.800,256.485 180.613,255.477 181.822 C 255.120 182.250,254.274 183.373,253.598 184.319 C 251.974 186.588,251.447 186.726,249.680 185.346 C 247.774 183.857,246.578 183.314,244.600 183.039 C 243.720 182.916,242.550 182.712,242.000 182.585 C 241.397 182.445,240.682 182.596,240.200 182.964 C 239.462 183.527,239.657 183.576,242.700 183.587 C 244.625 183.595,246.000 183.767,246.000 184.000 C 246.000 184.220,246.272 184.400,246.605 184.400 C 247.377 184.400,248.804 185.199,249.643 186.100 C 250.769 187.311,253.031 187.030,253.664 185.600 C 253.956 184.940,254.331 184.400,254.498 184.400 C 254.664 184.400,254.800 184.130,254.800 183.800 C 254.800 183.470,254.980 183.200,255.200 183.200 C 255.420 183.200,255.600 182.930,255.600 182.600 C 255.600 182.270,255.780 182.000,256.000 182.000 C 256.607 182.000,256.478 180.021,255.829 179.371 C 255.514 179.057,255.014 178.800,254.717 178.800 C 254.420 178.800,253.917 178.440,253.600 178.000 C 253.283 177.560,252.603 177.200,252.088 177.200 C 251.566 177.200,251.262 177.023,251.400 176.800 C 251.544 176.567,251.137 176.400,250.424 176.400 C 249.751 176.400,249.200 176.220,249.200 176.000 C 249.200 175.780,248.930 175.600,248.600 175.600 C 248.270 175.600,248.000 175.870,248.000 176.200 M271.200 176.000 C 271.200 176.220,270.660 176.400,270.000 176.400 C 269.340 176.400,268.800 176.580,268.800 176.800 C 268.800 177.020,268.530 177.200,268.200 177.200 C 267.870 177.200,267.600 177.380,267.600 177.600 C 267.600 177.820,267.330 178.000,267.000 178.000 C 266.670 178.000,266.400 178.180,266.400 178.400 C 266.400 178.620,266.214 178.800,265.987 178.800 C 265.251 178.800,262.800 181.549,262.800 182.374 C 262.800 182.814,263.840 184.254,265.111 185.573 C 267.683 188.242,268.556 188.399,269.734 186.403 C 270.105 185.777,270.946 185.025,271.604 184.734 C 272.262 184.443,272.800 184.069,272.800 183.902 C 272.800 183.736,273.149 183.600,273.576 183.600 C 274.003 183.600,274.464 183.420,274.600 183.200 C 274.736 182.980,275.737 182.800,276.824 182.800 C 277.911 182.800,278.800 182.980,278.800 183.200 C 278.800 183.420,279.078 183.600,279.418 183.600 C 281.135 183.600,282.291 186.059,282.072 189.245 C 281.981 190.568,280.179 192.400,278.969 192.400 C 278.462 192.400,277.951 192.556,277.833 192.747 C 277.513 193.264,273.093 193.274,272.774 192.759 C 271.821 191.216,270.800 193.223,270.800 196.638 C 270.800 198.809,270.655 199.957,270.400 199.800 C 270.180 199.664,270.000 199.743,270.000 199.976 C 270.000 200.209,270.270 200.400,270.600 200.400 C 271.086 200.400,271.200 199.756,271.200 197.000 L 271.200 193.600 274.754 193.600 C 276.820 193.600,278.710 193.391,279.267 193.100 C 280.939 192.228,282.400 190.906,282.400 190.266 C 282.400 189.926,282.580 189.536,282.800 189.400 C 284.277 188.487,282.080 183.200,280.224 183.200 C 279.907 183.200,279.536 183.020,279.400 182.800 C 279.264 182.580,278.004 182.400,276.600 182.400 C 275.196 182.400,273.936 182.580,273.800 182.800 C 273.664 183.020,273.203 183.200,272.776 183.200 C 272.349 183.200,272.000 183.380,272.000 183.600 C 272.000 183.820,271.744 184.000,271.431 184.000 C 271.118 184.000,270.246 184.720,269.493 185.600 C 267.785 187.595,267.814 187.597,265.704 185.300 C 263.203 182.579,263.102 182.313,264.125 181.154 C 265.680 179.391,269.873 176.800,271.169 176.800 C 271.579 176.800,272.018 176.530,272.145 176.200 C 272.285 175.835,272.145 175.600,271.787 175.600 C 271.464 175.600,271.200 175.780,271.200 176.000 M282.898 176.100 C 282.989 176.375,283.496 176.663,284.026 176.740 C 284.556 176.817,285.442 177.193,285.995 177.575 C 286.548 177.957,287.307 178.381,287.683 178.516 C 288.524 178.819,290.400 181.718,290.400 182.716 C 290.400 183.118,290.664 183.796,290.987 184.224 C 291.551 184.969,291.575 184.956,291.587 183.924 C 291.594 183.332,291.420 182.736,291.200 182.600 C 290.980 182.464,290.800 182.003,290.800 181.576 C 290.800 181.149,290.620 180.800,290.400 180.800 C 290.180 180.800,290.000 180.614,290.000 180.387 C 290.000 179.742,287.299 177.200,286.613 177.200 C 286.276 177.200,286.000 177.020,286.000 176.800 C 286.000 176.580,285.550 176.400,285.000 176.400 C 284.450 176.400,284.000 176.220,284.000 176.000 C 284.000 175.780,283.715 175.600,283.367 175.600 C 283.018 175.600,282.807 175.825,282.898 176.100 M227.300 180.998 C 227.025 181.311,226.800 182.013,226.800 182.560 C 226.800 183.106,226.620 183.664,226.400 183.800 C 225.721 184.220,225.896 191.953,226.600 192.657 C 227.133 193.190,227.200 193.145,227.200 192.252 C 227.200 191.699,227.020 191.136,226.800 191.000 C 226.580 190.864,226.400 189.424,226.400 187.800 C 226.400 186.176,226.580 184.736,226.800 184.600 C 227.020 184.464,227.200 183.928,227.200 183.410 C 227.200 182.891,227.356 182.407,227.547 182.333 C 228.011 182.155,228.543 180.396,228.127 180.415 C 227.947 180.424,227.575 180.686,227.300 180.998 M235.893 184.500 C 233.329 186.724,234.745 192.000,237.905 192.000 C 238.371 192.000,238.864 192.180,239.000 192.400 C 239.136 192.620,239.732 192.779,240.324 192.754 C 241.001 192.724,241.140 192.639,240.700 192.524 C 240.315 192.424,240.000 192.175,240.000 191.971 C 240.000 191.767,239.544 191.600,238.986 191.600 C 234.404 191.600,233.686 185.990,238.000 183.897 C 239.284 183.274,239.317 183.217,238.396 183.209 C 237.827 183.204,236.742 183.763,235.893 184.500 M290.352 190.001 C 289.776 191.212,288.460 192.980,287.428 193.931 C 285.485 195.722,285.418 196.800,287.249 196.800 C 287.662 196.800,288.000 196.980,288.000 197.200 C 288.000 197.420,288.261 197.600,288.580 197.600 C 288.898 197.600,289.663 198.275,290.280 199.100 C 290.896 199.925,291.535 200.660,291.700 200.733 C 291.865 200.807,292.000 201.201,292.000 201.610 C 292.000 202.435,292.702 203.043,293.127 202.585 C 293.277 202.423,293.175 202.210,292.900 202.112 C 292.625 202.014,292.400 201.488,292.400 200.943 C 292.400 200.385,292.226 200.061,292.000 200.200 C 291.780 200.336,291.600 200.146,291.600 199.778 C 291.600 198.823,288.818 196.400,287.722 196.400 C 286.410 196.400,286.526 195.076,287.900 194.368 C 289.391 193.598,290.000 192.978,290.000 192.229 C 290.000 191.883,290.180 191.600,290.400 191.600 C 290.620 191.600,290.800 191.255,290.800 190.833 C 290.800 190.412,290.998 190.001,291.239 189.920 C 291.481 189.840,291.616 189.330,291.539 188.787 C 291.420 187.942,291.249 188.118,290.352 190.001 M242.176 193.013 C 242.604 193.336,243.414 193.579,243.976 193.554 C 244.654 193.523,244.764 193.445,244.300 193.324 C 243.915 193.224,243.600 192.975,243.600 192.771 C 243.600 192.567,243.105 192.406,242.500 192.413 C 241.446 192.425,241.433 192.450,242.176 193.013 M246.000 193.800 C 246.274 194.130,247.005 194.400,247.625 194.400 C 248.245 194.400,248.864 194.580,249.000 194.800 C 249.136 195.020,249.672 195.200,250.190 195.200 C 250.709 195.200,251.193 195.335,251.267 195.500 C 251.340 195.665,251.940 196.096,252.600 196.457 C 253.967 197.206,256.795 200.686,256.798 201.624 C 256.802 202.733,257.971 204.012,257.987 202.924 C 257.994 202.442,257.820 201.936,257.600 201.800 C 257.380 201.664,257.200 201.153,257.200 200.665 C 257.200 200.176,256.840 199.517,256.400 199.200 C 255.960 198.883,255.600 198.380,255.600 198.083 C 255.600 197.351,254.600 196.400,253.829 196.400 C 253.483 196.400,253.200 196.220,253.200 196.000 C 253.200 195.780,252.840 195.600,252.400 195.600 C 251.960 195.600,251.600 195.420,251.600 195.200 C 251.600 194.980,251.240 194.800,250.800 194.800 C 250.360 194.800,250.000 194.620,250.000 194.400 C 250.000 194.180,249.370 194.000,248.600 194.000 C 247.830 194.000,247.200 193.820,247.200 193.600 C 247.200 193.380,246.818 193.200,246.351 193.200 C 245.642 193.200,245.584 193.299,246.000 193.800 M227.100 193.865 C 227.375 193.976,227.600 194.340,227.600 194.673 C 227.600 195.619,231.194 198.800,232.264 198.800 C 232.779 198.800,233.200 198.980,233.200 199.200 C 233.200 199.420,233.650 199.600,234.200 199.600 C 234.750 199.600,235.200 199.780,235.200 200.000 C 235.200 200.220,235.830 200.400,236.600 200.400 C 237.370 200.400,238.000 200.580,238.000 200.800 C 238.000 201.020,238.382 201.200,238.849 201.200 C 239.558 201.200,239.616 201.101,239.200 200.600 C 238.926 200.270,238.182 200.000,237.546 200.000 C 236.910 200.000,236.077 199.836,235.695 199.636 C 235.313 199.436,234.454 199.031,233.786 198.736 C 231.339 197.656,228.933 195.859,228.439 194.744 C 228.161 194.114,227.633 193.614,227.266 193.632 C 226.851 193.651,226.788 193.739,227.100 193.865 M279.424 200.587 C 279.851 200.910,280.470 201.186,280.800 201.200 C 281.564 201.232,282.800 202.161,282.800 202.701 C 282.800 202.929,283.070 203.218,283.400 203.345 C 284.904 203.922,283.180 201.631,281.260 200.500 C 279.942 199.724,278.380 199.798,279.424 200.587 M240.900 201.076 C 241.285 201.176,241.600 201.425,241.600 201.629 C 241.600 201.833,242.104 202.000,242.720 202.000 C 243.936 202.000,245.992 202.816,245.997 203.300 C 245.999 203.465,246.283 203.600,246.629 203.600 C 247.817 203.600,248.400 204.679,248.400 206.882 C 248.400 209.117,247.617 210.800,246.577 210.800 C 246.260 210.800,246.000 210.980,246.000 211.200 C 246.000 211.441,244.333 211.600,241.800 211.600 C 239.267 211.600,237.600 211.441,237.600 211.200 C 237.600 210.980,237.150 210.800,236.600 210.800 C 236.050 210.800,235.600 210.620,235.600 210.400 C 235.600 210.180,235.370 210.000,235.088 210.000 C 234.807 210.000,234.317 209.640,234.000 209.200 C 233.683 208.760,233.270 208.400,233.083 208.400 C 232.520 208.400,231.600 207.301,231.600 206.629 C 231.600 206.276,231.264 206.000,230.833 206.000 C 230.412 206.000,230.007 205.821,229.933 205.601 C 229.764 205.094,227.600 206.928,227.600 207.578 C 227.600 207.845,226.880 208.754,226.000 209.600 C 224.491 211.050,223.912 212.400,224.800 212.400 C 225.020 212.400,225.200 212.678,225.200 213.018 C 225.200 213.358,225.650 214.086,226.200 214.636 C 227.420 215.857,227.455 215.677,226.358 213.818 C 225.240 211.924,225.553 210.861,227.984 208.300 L 229.944 206.234 231.994 208.317 C 233.122 209.463,234.304 210.400,234.622 210.400 C 234.940 210.400,235.200 210.580,235.200 210.800 C 235.200 211.020,235.560 211.200,236.000 211.200 C 236.440 211.200,236.800 211.380,236.800 211.600 C 236.800 211.820,237.419 212.000,238.176 212.000 C 238.933 212.000,239.664 212.180,239.800 212.400 C 239.936 212.620,240.926 212.800,242.000 212.800 C 243.074 212.800,244.064 212.620,244.200 212.400 C 244.336 212.180,244.943 212.000,245.549 212.000 C 248.353 212.000,250.413 205.956,248.321 203.864 C 247.288 202.830,244.837 201.600,243.811 201.600 C 243.281 201.600,242.736 201.420,242.600 201.200 C 242.464 200.980,241.868 200.821,241.276 200.846 C 240.599 200.876,240.460 200.961,240.900 201.076 M257.682 206.681 C 257.637 208.266,257.395 210.066,257.144 210.681 C 256.893 211.297,256.443 212.367,256.144 213.060 C 255.494 214.566,255.475 214.800,256.000 214.800 C 256.220 214.800,256.400 214.440,256.400 214.000 C 256.400 213.560,256.580 213.200,256.800 213.200 C 257.020 213.200,257.200 212.876,257.200 212.480 C 257.200 212.084,257.387 211.573,257.616 211.344 C 257.864 211.096,257.979 209.485,257.899 207.364 C 257.767 203.868,257.763 203.855,257.682 206.681 M283.794 205.048 C 284.140 206.347,284.138 206.527,283.764 208.200 C 283.458 209.569,282.515 210.800,281.771 210.800 C 281.494 210.800,281.194 211.019,281.105 211.286 C 280.994 211.619,279.803 211.771,277.305 211.771 L 273.666 211.771 271.833 209.938 C 270.825 208.930,270.000 207.834,270.000 207.502 C 270.000 207.170,269.730 206.674,269.400 206.400 C 268.909 205.992,268.800 206.020,268.800 206.551 C 268.800 206.908,268.980 207.200,269.200 207.200 C 269.420 207.200,269.600 207.560,269.600 208.000 C 269.600 208.440,269.780 208.800,270.000 208.800 C 270.220 208.800,270.400 209.061,270.400 209.380 C 270.400 213.111,281.882 213.738,283.580 210.100 C 283.811 209.605,284.193 208.783,284.429 208.273 C 284.998 207.040,284.748 204.310,284.044 204.079 C 283.611 203.936,283.555 204.152,283.794 205.048 M292.924 206.600 C 292.922 208.140,292.995 208.905,293.087 208.300 C 293.178 207.695,293.421 207.200,293.627 207.200 C 293.832 207.200,294.000 206.919,294.000 206.576 C 294.000 206.233,293.832 206.057,293.626 206.184 C 293.420 206.311,293.179 205.827,293.090 205.108 C 293.001 204.388,292.926 205.060,292.924 206.600 M266.800 205.600 C 266.800 205.820,266.440 206.000,266.000 206.000 C 265.560 206.000,265.200 206.180,265.200 206.400 C 265.200 206.620,264.750 206.800,264.200 206.800 C 263.650 206.800,263.200 206.980,263.200 207.200 C 263.200 207.420,262.859 207.600,262.443 207.600 C 261.133 207.600,260.724 209.910,261.866 210.851 C 262.466 211.345,262.506 211.293,262.267 210.332 C 261.917 208.926,262.305 208.000,263.243 208.000 C 263.659 208.000,264.000 207.820,264.000 207.600 C 264.000 207.380,264.272 207.200,264.605 207.200 C 264.938 207.200,265.523 207.033,265.905 206.829 C 266.287 206.625,266.926 206.357,267.325 206.232 C 267.724 206.108,267.939 205.824,267.802 205.603 C 267.480 205.083,266.800 205.081,266.800 205.600 M292.243 211.033 C 291.896 211.936,291.929 212.002,292.600 211.745 C 292.930 211.618,293.200 211.264,293.200 210.957 C 293.200 210.199,292.543 210.251,292.243 211.033 M262.300 212.265 C 262.575 212.376,262.800 212.812,262.800 213.233 C 262.800 213.655,262.980 214.000,263.200 214.000 C 263.420 214.000,263.600 214.283,263.600 214.629 C 263.600 215.400,264.551 216.400,265.283 216.400 C 265.580 216.400,266.083 216.760,266.400 217.200 C 266.717 217.640,267.282 218.000,267.655 218.000 C 268.028 218.000,268.424 218.225,268.535 218.500 C 268.690 218.883,268.744 218.886,268.768 218.510 C 268.786 218.241,268.305 217.761,267.700 217.443 C 266.426 216.775,263.905 214.210,263.233 212.900 C 262.979 212.405,262.553 212.014,262.286 212.032 C 261.920 212.055,261.923 212.113,262.300 212.265 M291.467 213.067 C 291.006 213.527,291.175 214.000,291.800 214.000 C 292.130 214.000,292.400 213.730,292.400 213.400 C 292.400 212.775,291.927 212.606,291.467 213.067 M289.462 215.931 C 289.098 216.334,288.800 216.884,288.800 217.155 C 288.800 217.426,288.620 217.536,288.400 217.400 C 288.180 217.264,288.000 217.343,288.000 217.576 C 288.000 218.264,288.803 218.060,289.085 217.300 C 289.228 216.915,289.700 216.285,290.133 215.900 C 290.567 215.515,290.743 215.200,290.523 215.200 C 290.304 215.200,289.826 215.529,289.462 215.931 M227.600 216.000 C 227.600 216.220,227.960 216.400,228.400 216.400 C 228.840 216.400,229.200 216.610,229.200 216.867 C 229.200 217.123,229.335 217.199,229.499 217.034 C 229.664 216.869,229.450 216.479,229.023 216.167 C 228.112 215.501,227.600 215.441,227.600 216.000 M230.000 217.600 C 230.000 217.820,230.461 218.000,231.024 218.000 C 231.604 218.000,231.940 218.173,231.800 218.400 C 231.656 218.633,232.063 218.800,232.776 218.800 C 233.449 218.800,234.000 218.980,234.000 219.200 C 234.000 219.420,234.285 219.600,234.633 219.600 C 235.511 219.600,235.109 218.629,234.167 218.473 C 233.745 218.403,232.833 218.088,232.140 217.773 C 230.658 217.100,230.000 217.046,230.000 217.600 M251.266 217.839 C 250.464 218.400,249.739 218.663,248.700 218.769 C 248.010 218.840,248.467 219.600,249.200 219.600 C 249.640 219.600,250.000 219.420,250.000 219.200 C 250.000 218.980,250.360 218.800,250.800 218.800 C 251.240 218.800,251.600 218.620,251.600 218.400 C 251.600 218.180,251.960 218.000,252.400 218.000 C 252.840 218.000,253.200 217.820,253.200 217.600 C 253.200 217.004,252.298 217.116,251.266 217.839 M286.656 217.878 C 286.205 218.328,286.381 218.800,287.000 218.800 C 287.330 218.800,287.600 218.631,287.600 218.424 C 287.600 217.919,286.975 217.558,286.656 217.878 M269.844 218.971 C 270.128 219.710,271.345 219.835,271.100 219.100 C 271.009 218.825,270.634 218.542,270.268 218.471 C 269.804 218.381,269.676 218.532,269.844 218.971 M284.000 219.200 C 284.000 219.420,284.270 219.600,284.600 219.600 C 284.930 219.600,285.200 219.420,285.200 219.200 C 285.200 218.980,284.930 218.800,284.600 218.800 C 284.270 218.800,284.000 218.980,284.000 219.200 M237.438 219.754 C 237.800 220.697,246.192 220.718,246.554 219.776 C 246.759 219.241,246.522 219.194,244.897 219.443 C 242.554 219.802,241.524 219.796,239.095 219.410 C 237.434 219.146,237.221 219.190,237.438 219.754 M273.623 219.772 C 273.160 220.330,273.353 220.400,275.351 220.400 C 276.588 220.400,277.600 220.220,277.600 220.000 C 277.600 219.780,277.195 219.598,276.700 219.595 C 276.205 219.592,275.427 219.489,274.972 219.367 C 274.478 219.234,273.934 219.397,273.623 219.772 M279.500 219.519 C 277.716 219.736,278.244 220.400,280.200 220.400 C 281.190 220.400,282.000 220.241,282.000 220.047 C 282.000 219.587,280.884 219.351,279.500 219.519 " stroke="none" fill="#99a6b3" fill-rule="evenodd"></path><path id="path3" d="M108.400 161.600 C 108.400 161.820,108.040 162.000,107.600 162.000 C 107.160 162.000,106.800 162.180,106.800 162.400 C 106.800 162.620,106.575 162.800,106.300 162.800 C 105.438 162.801,103.600 164.655,103.600 165.523 C 103.600 165.979,103.420 166.464,103.200 166.600 C 102.975 166.739,102.800 168.663,102.800 171.000 C 102.800 173.337,102.975 175.261,103.200 175.400 C 103.420 175.536,103.600 176.177,103.600 176.824 C 103.600 177.471,103.780 178.000,104.000 178.000 C 104.220 178.000,104.400 178.258,104.400 178.573 C 104.400 178.888,108.899 183.613,114.398 189.073 C 119.896 194.533,124.396 199.242,124.398 199.538 C 124.401 200.287,122.853 202.441,121.624 203.397 C 120.413 204.340,115.275 209.491,113.000 212.042 C 112.120 213.029,110.770 214.275,110.000 214.810 C 108.322 215.976,107.450 216.852,105.615 219.216 C 104.853 220.197,104.088 221.060,103.915 221.133 C 103.742 221.207,103.600 221.601,103.600 222.010 C 103.600 222.418,103.420 222.864,103.200 223.000 C 102.959 223.149,102.800 225.930,102.800 230.000 C 102.800 234.070,102.959 236.851,103.200 237.000 C 103.420 237.136,103.600 237.597,103.600 238.024 C 103.600 238.451,103.870 238.800,104.200 238.800 C 104.714 238.800,104.800 237.597,104.800 230.369 L 104.800 221.937 115.600 211.082 C 121.540 205.112,126.400 200.058,126.400 199.852 C 126.400 199.646,121.495 194.571,115.500 188.575 L 104.600 177.673 104.720 171.680 L 104.839 165.686 107.036 164.043 C 108.244 163.139,109.496 162.400,109.816 162.400 C 110.137 162.400,110.400 162.130,110.400 161.800 C 110.400 161.427,110.022 161.200,109.400 161.200 C 108.850 161.200,108.400 161.380,108.400 161.600 M111.267 161.580 C 111.496 162.233,135.438 187.038,144.686 196.204 L 148.372 199.856 137.159 211.228 C 130.992 217.483,123.036 225.626,119.479 229.324 C 112.386 236.699,110.824 238.061,109.359 238.144 C 108.726 238.180,108.421 238.410,108.495 238.795 C 108.653 239.621,109.904 239.783,111.147 239.139 C 112.502 238.438,130.800 220.126,130.800 219.472 C 130.800 219.197,131.320 218.666,131.955 218.290 C 133.596 217.321,147.569 203.265,148.459 201.688 C 149.381 200.055,149.386 199.554,148.489 198.575 C 148.098 198.149,147.393 197.253,146.923 196.586 C 146.452 195.918,140.967 190.230,134.734 183.946 C 128.500 177.662,122.853 171.908,122.185 171.160 C 121.517 170.412,120.488 169.350,119.899 168.800 C 119.310 168.250,117.867 166.810,116.694 165.600 C 113.106 161.901,110.773 160.173,111.267 161.580 M142.800 162.074 C 140.971 163.141,138.810 165.248,138.804 165.970 C 138.801 166.394,139.030 166.336,139.700 165.741 C 143.506 162.365,146.686 161.150,147.439 162.783 C 148.127 164.274,182.599 199.200,183.383 199.200 C 183.996 199.200,183.400 198.277,181.600 196.439 C 180.500 195.315,179.600 194.238,179.600 194.044 C 179.600 193.850,179.170 193.411,178.645 193.066 C 177.483 192.305,166.800 181.634,166.800 181.234 C 166.800 180.813,164.620 178.800,164.164 178.800 C 163.949 178.800,163.480 178.305,163.123 177.700 C 162.327 176.354,148.516 162.397,147.290 161.700 C 146.043 160.991,144.425 161.126,142.800 162.074 M138.300 167.032 C 137.844 167.490,137.936 176.713,138.400 177.000 C 138.620 177.136,138.800 177.505,138.800 177.819 C 138.800 178.611,139.775 179.784,142.770 182.591 C 148.509 187.972,159.600 199.215,159.600 199.652 C 159.600 200.160,156.771 203.153,147.200 212.773 C 139.860 220.151,138.800 221.364,138.800 222.383 C 138.800 222.807,138.620 223.264,138.400 223.400 C 138.161 223.548,138.000 226.196,138.000 230.000 C 138.000 233.804,138.161 236.452,138.400 236.600 C 138.620 236.736,138.800 237.256,138.800 237.756 C 138.800 238.786,140.430 239.876,141.230 239.381 C 141.600 239.153,141.518 238.987,140.925 238.768 C 139.795 238.350,139.600 236.949,139.600 229.232 L 139.600 222.564 150.600 211.483 C 156.650 205.389,161.600 200.228,161.600 200.015 C 161.600 199.801,156.476 194.523,150.212 188.285 L 138.825 176.944 138.712 171.837 C 138.651 169.029,138.465 166.867,138.300 167.032 M238.600 174.400 C 238.464 174.620,237.553 174.800,236.576 174.800 C 235.599 174.800,234.800 174.980,234.800 175.200 C 234.800 175.420,234.440 175.600,234.000 175.600 C 233.560 175.600,233.200 175.780,233.200 176.000 C 233.200 176.220,233.560 176.400,234.000 176.400 C 234.440 176.400,234.800 176.220,234.800 176.000 C 234.800 175.780,235.689 175.600,236.776 175.600 C 237.863 175.600,238.868 175.413,239.009 175.185 C 239.305 174.707,244.749 174.793,245.050 175.281 C 245.159 175.456,245.877 175.600,246.647 175.600 C 247.479 175.600,247.947 175.438,247.800 175.200 C 247.664 174.980,246.944 174.800,246.200 174.800 C 245.456 174.800,244.736 174.620,244.600 174.400 C 244.464 174.180,243.114 174.000,241.600 174.000 C 240.086 174.000,238.736 174.180,238.600 174.400 M193.400 175.200 C 193.237 175.464,197.773 175.600,206.709 175.600 L 220.265 175.600 220.790 176.581 C 221.287 177.510,221.119 182.359,220.558 183.267 C 220.445 183.450,216.043 183.600,210.776 183.600 C 203.391 183.600,201.196 183.714,201.183 184.100 C 201.174 184.375,201.093 186.220,201.003 188.200 C 200.754 193.691,199.904 193.200,209.664 193.200 L 218.075 193.200 217.937 197.200 C 217.841 200.002,217.936 201.201,218.255 201.200 C 219.086 201.200,219.969 195.009,219.241 194.281 C 218.999 194.039,218.800 193.516,218.800 193.120 C 218.800 192.674,218.505 192.400,218.024 192.400 C 217.597 192.400,217.136 192.220,217.000 192.000 C 216.860 191.773,214.870 191.600,212.400 191.600 C 209.930 191.600,207.940 191.773,207.800 192.000 C 207.664 192.220,206.854 192.400,206.000 192.400 C 205.146 192.400,204.336 192.220,204.200 192.000 C 204.064 191.780,203.530 191.600,203.013 191.600 C 202.155 191.600,202.060 191.402,201.915 189.300 C 201.686 186.005,202.055 185.200,203.790 185.200 C 204.566 185.200,205.200 185.020,205.200 184.800 C 205.200 184.547,208.076 184.400,213.029 184.400 C 219.280 184.400,220.972 184.285,221.429 183.829 C 222.071 183.186,222.270 176.400,221.647 176.400 C 221.452 176.400,221.199 176.040,221.084 175.600 C 220.847 174.695,193.952 174.306,193.400 175.200 M270.800 175.200 C 270.800 175.420,270.440 175.600,270.000 175.600 C 269.560 175.600,269.200 175.780,269.200 176.000 C 269.200 176.220,269.650 176.400,270.200 176.400 C 270.750 176.400,271.200 176.220,271.200 176.000 C 271.200 175.780,272.010 175.600,273.000 175.600 C 273.990 175.600,274.800 175.420,274.800 175.200 C 274.800 174.980,273.900 174.800,272.800 174.800 C 271.700 174.800,270.800 174.980,270.800 175.200 M279.820 175.233 C 279.945 175.435,280.937 175.600,282.024 175.600 C 283.111 175.600,284.000 175.780,284.000 176.000 C 284.000 176.220,284.450 176.400,285.000 176.400 C 285.550 176.400,286.000 176.580,286.000 176.800 C 286.000 177.020,286.276 177.200,286.613 177.200 C 287.299 177.200,290.000 179.742,290.000 180.387 C 290.000 180.614,290.180 180.800,290.400 180.800 C 290.620 180.800,290.800 181.149,290.800 181.576 C 290.800 182.003,290.980 182.464,291.200 182.600 C 291.420 182.736,291.600 184.457,291.600 186.424 C 291.600 188.541,291.437 190.000,291.200 190.000 C 290.980 190.000,290.800 190.345,290.800 190.767 C 290.800 191.188,290.599 191.600,290.354 191.682 C 290.109 191.764,290.000 192.184,290.112 192.615 C 290.303 193.351,290.333 193.344,290.604 192.500 C 290.763 192.005,291.052 191.600,291.247 191.600 C 291.441 191.600,291.600 191.251,291.600 190.824 C 291.600 190.397,291.780 189.936,292.000 189.800 C 292.220 189.664,292.400 188.044,292.400 186.200 C 292.400 184.356,292.220 182.736,292.000 182.600 C 291.780 182.464,291.600 182.023,291.600 181.619 C 291.600 180.793,287.325 176.400,286.521 176.400 C 286.234 176.400,286.000 176.220,286.000 176.000 C 286.000 175.780,285.651 175.600,285.224 175.600 C 284.797 175.600,284.351 175.444,284.233 175.253 C 284.115 175.062,283.022 174.896,281.806 174.886 C 280.559 174.874,279.692 175.026,279.820 175.233 M190.807 197.600 C 190.804 211.946,190.942 219.600,191.202 219.600 C 191.461 219.600,191.600 211.943,191.600 197.600 C 191.600 183.405,191.460 175.600,191.206 175.600 C 190.951 175.600,190.810 183.408,190.807 197.600 M249.200 176.000 C 249.200 176.220,249.751 176.400,250.424 176.400 C 251.137 176.400,251.544 176.567,251.400 176.800 C 251.262 177.023,251.566 177.200,252.088 177.200 C 252.603 177.200,253.283 177.560,253.600 178.000 C 253.917 178.440,254.420 178.800,254.717 178.800 C 255.014 178.800,255.514 179.057,255.829 179.371 C 256.478 180.021,256.607 182.000,256.000 182.000 C 255.780 182.000,255.600 182.270,255.600 182.600 C 255.600 182.930,255.420 183.200,255.200 183.200 C 254.980 183.200,254.800 183.455,254.800 183.767 C 254.800 184.078,254.575 184.414,254.300 184.512 C 254.025 184.610,253.944 184.844,254.119 185.031 C 254.552 185.493,255.711 184.731,256.195 183.667 C 256.412 183.190,256.727 182.800,256.895 182.800 C 257.063 182.800,257.200 182.162,257.200 181.382 C 257.200 179.894,255.782 178.000,254.667 178.000 C 254.354 178.000,253.877 177.734,253.607 177.408 C 252.520 176.098,249.200 175.037,249.200 176.000 M264.500 179.002 C 261.560 181.962,261.430 182.705,263.500 184.731 C 264.325 185.539,265.255 186.695,265.568 187.300 C 266.124 188.379,266.622 188.599,268.177 188.454 C 268.972 188.380,272.616 184.882,272.264 184.531 C 271.929 184.196,270.156 185.560,269.617 186.569 C 268.633 188.407,267.628 188.185,265.111 185.573 C 263.840 184.254,262.800 182.814,262.800 182.374 C 262.800 181.549,265.251 178.800,265.987 178.800 C 266.214 178.800,266.400 178.620,266.400 178.400 C 266.400 178.180,266.670 178.000,267.000 178.000 C 267.330 178.000,267.600 177.820,267.600 177.600 C 267.600 177.380,267.870 177.200,268.200 177.200 C 268.530 177.200,268.800 177.020,268.800 176.800 C 268.800 175.675,266.776 176.711,264.500 179.002 M228.861 178.655 C 228.125 179.425,227.618 180.151,227.734 180.268 C 227.945 180.479,230.800 177.821,230.800 177.413 C 230.800 176.908,230.109 177.350,228.861 178.655 M226.210 181.900 C 226.043 182.395,225.748 182.800,225.553 182.800 C 225.359 182.800,225.200 183.239,225.200 183.776 C 225.200 184.313,225.020 184.864,224.800 185.000 C 224.580 185.136,224.400 186.216,224.400 187.400 C 224.400 188.584,224.580 189.664,224.800 189.800 C 225.020 189.936,225.200 190.499,225.200 191.052 C 225.200 192.136,226.259 193.488,226.719 192.993 C 226.874 192.827,226.775 192.610,226.500 192.512 C 225.857 192.282,225.795 184.365,226.431 183.729 C 226.668 183.492,226.784 182.781,226.688 182.149 C 226.522 181.057,226.498 181.045,226.210 181.900 M274.600 183.200 C 274.464 183.420,274.003 183.600,273.576 183.600 C 273.149 183.600,272.800 183.786,272.800 184.013 C 272.800 184.274,274.080 184.387,276.269 184.319 C 279.052 184.233,279.775 184.329,279.927 184.806 C 280.032 185.133,280.361 185.544,280.659 185.720 C 281.638 186.299,281.342 189.494,280.203 190.633 C 279.343 191.493,278.836 191.632,276.503 191.650 C 273.955 191.669,272.800 192.043,272.800 192.851 C 272.800 193.305,277.548 193.208,277.832 192.748 C 277.951 192.556,278.462 192.400,278.969 192.400 C 280.179 192.400,281.981 190.568,282.072 189.245 C 282.291 186.059,281.135 183.600,279.418 183.600 C 279.078 183.600,278.800 183.420,278.800 183.200 C 278.800 182.980,277.911 182.800,276.824 182.800 C 275.737 182.800,274.736 182.980,274.600 183.200 M237.417 184.124 C 233.692 186.390,234.785 191.600,238.986 191.600 C 239.544 191.600,240.000 191.780,240.000 192.000 C 240.000 192.220,240.810 192.400,241.800 192.400 C 242.790 192.400,243.600 192.580,243.600 192.800 C 243.600 193.020,244.410 193.200,245.400 193.200 C 246.390 193.200,247.200 193.380,247.200 193.600 C 247.200 193.820,247.830 194.000,248.600 194.000 C 249.370 194.000,250.000 194.180,250.000 194.400 C 250.000 194.620,250.345 194.800,250.767 194.800 C 251.188 194.800,251.614 195.025,251.712 195.300 C 251.810 195.575,252.027 195.674,252.193 195.519 C 252.591 195.149,251.426 194.000,250.652 194.000 C 250.319 194.000,249.936 193.820,249.800 193.600 C 249.664 193.380,249.113 193.200,248.576 193.200 C 248.039 193.200,247.600 193.020,247.600 192.800 C 247.600 192.580,246.891 192.400,246.024 192.400 C 245.157 192.400,244.336 192.220,244.200 192.000 C 244.064 191.780,243.164 191.600,242.200 191.600 C 241.236 191.600,240.336 191.420,240.200 191.200 C 240.064 190.980,239.579 190.800,239.122 190.800 C 236.233 190.800,235.631 186.159,238.354 184.874 C 240.281 183.965,246.258 184.524,247.459 185.726 C 247.610 185.877,248.024 186.000,248.378 186.000 C 248.733 186.000,249.283 186.360,249.600 186.800 C 250.211 187.647,253.200 187.979,253.200 187.200 C 253.200 186.980,252.546 186.800,251.747 186.800 C 250.878 186.800,250.032 186.519,249.643 186.100 C 248.804 185.199,247.377 184.400,246.605 184.400 C 246.272 184.400,246.000 184.220,246.000 184.000 C 246.000 183.424,238.387 183.533,237.417 184.124 M270.000 195.976 C 270.000 197.943,270.180 199.664,270.400 199.800 C 270.655 199.957,270.800 198.811,270.800 196.643 C 270.800 193.824,270.920 193.170,271.500 192.832 C 272.098 192.483,272.040 192.423,271.100 192.412 L 270.000 192.400 270.000 195.976 M226.800 194.566 C 226.800 195.238,229.558 198.175,229.884 197.849 C 230.008 197.725,229.545 197.096,228.855 196.451 C 228.165 195.807,227.600 194.991,227.600 194.640 C 227.600 194.288,227.420 194.000,227.200 194.000 C 226.980 194.000,226.800 194.255,226.800 194.566 M287.500 194.557 C 286.542 195.284,286.603 196.400,287.600 196.400 C 288.133 196.400,288.400 196.133,288.400 195.600 C 288.400 195.160,288.580 194.800,288.800 194.800 C 289.020 194.800,289.200 194.620,289.200 194.400 C 289.200 193.843,288.335 193.923,287.500 194.557 M290.000 197.512 C 290.000 197.683,290.360 198.083,290.800 198.400 C 291.240 198.717,291.600 199.307,291.600 199.712 C 291.600 200.116,291.780 200.336,292.000 200.200 C 292.227 200.060,292.400 200.396,292.400 200.976 C 292.400 201.539,292.580 202.000,292.800 202.000 C 293.580 202.000,293.183 200.655,291.900 198.952 C 290.672 197.320,290.000 196.811,290.000 197.512 M255.600 198.229 C 255.600 198.527,256.675 199.600,256.975 199.600 C 257.102 199.600,256.982 199.240,256.707 198.800 C 256.238 198.049,255.600 197.720,255.600 198.229 M231.029 198.847 C 231.333 199.338,233.663 200.400,234.438 200.400 C 234.831 200.400,235.264 200.580,235.400 200.800 C 235.536 201.020,236.166 201.200,236.800 201.200 C 237.434 201.200,238.064 201.380,238.200 201.600 C 238.336 201.820,239.056 202.000,239.800 202.000 C 240.544 202.000,241.264 202.180,241.400 202.400 C 241.536 202.620,242.256 202.800,243.000 202.800 C 243.744 202.800,244.464 202.980,244.600 203.200 C 244.887 203.664,246.001 203.744,245.997 203.300 C 245.992 202.816,243.936 202.000,242.720 202.000 C 242.104 202.000,241.600 201.820,241.600 201.600 C 241.600 201.380,240.790 201.200,239.800 201.200 C 238.810 201.200,238.000 201.020,238.000 200.800 C 238.000 200.580,237.370 200.400,236.600 200.400 C 235.830 200.400,235.200 200.220,235.200 200.000 C 235.200 199.780,234.750 199.600,234.200 199.600 C 233.650 199.600,233.200 199.440,233.200 199.245 C 233.200 199.050,232.670 198.813,232.021 198.718 C 231.373 198.623,230.926 198.681,231.029 198.847 M257.200 200.976 C 257.200 201.293,257.380 201.664,257.600 201.800 C 257.829 201.941,258.000 203.996,258.000 206.600 C 258.000 209.204,257.829 211.259,257.600 211.400 C 257.380 211.536,257.200 211.997,257.200 212.424 C 257.200 212.851,257.020 213.200,256.800 213.200 C 256.580 213.200,256.400 213.560,256.400 214.000 C 256.400 214.440,256.580 214.800,256.800 214.800 C 257.020 214.800,257.200 214.440,257.200 214.000 C 257.200 213.560,257.380 213.200,257.600 213.200 C 257.820 213.200,258.000 212.840,258.000 212.400 C 258.000 211.960,258.160 211.600,258.355 211.600 C 259.572 211.600,259.531 203.840,258.301 201.300 C 257.809 200.285,257.200 200.106,257.200 200.976 M278.000 200.800 C 278.000 201.020,278.360 201.200,278.800 201.200 C 279.240 201.200,279.600 201.380,279.600 201.600 C 279.600 201.820,279.876 202.000,280.214 202.000 C 282.884 202.000,284.033 207.603,281.818 209.818 C 280.774 210.862,274.000 211.366,274.000 210.400 C 274.000 210.180,273.706 210.000,273.347 210.000 C 272.576 210.000,270.807 208.063,270.788 207.200 C 270.770 206.375,269.674 204.993,269.319 205.347 C 269.160 205.506,269.248 205.986,269.515 206.413 C 269.782 206.840,270.000 207.395,270.000 207.647 C 270.000 207.899,270.825 208.930,271.833 209.938 L 273.666 211.771 277.257 211.771 C 279.231 211.771,280.971 211.598,281.123 211.386 C 281.276 211.174,281.748 210.808,282.173 210.573 C 283.967 209.584,284.777 203.200,283.109 203.200 C 282.939 203.200,282.800 202.960,282.800 202.668 C 282.800 202.375,282.305 201.904,281.700 201.621 C 281.095 201.338,280.287 200.948,279.905 200.753 C 278.978 200.281,278.000 200.305,278.000 200.800 M181.600 202.246 C 180.830 202.988,180.065 203.597,179.900 203.598 C 179.735 203.599,179.594 203.735,179.588 203.900 C 179.568 204.373,147.084 237.020,146.118 237.537 C 145.642 237.792,144.791 238.000,144.226 238.000 C 143.662 238.000,143.200 238.180,143.200 238.400 C 143.200 238.620,142.919 238.800,142.576 238.800 C 142.233 238.800,142.064 238.980,142.200 239.200 C 142.336 239.420,143.247 239.600,144.224 239.600 C 145.201 239.600,146.000 239.420,146.000 239.200 C 146.000 238.980,146.278 238.800,146.618 238.800 C 147.261 238.800,164.400 221.811,164.400 221.174 C 164.400 220.975,168.495 216.707,173.500 211.690 C 178.505 206.673,182.834 202.276,183.119 201.920 C 184.123 200.667,182.985 200.911,181.600 202.246 M201.007 201.188 C 200.912 201.342,200.843 202.083,200.854 202.834 C 200.864 203.585,200.858 205.865,200.839 207.900 L 200.806 211.600 203.226 211.600 C 204.877 211.600,205.561 211.461,205.377 211.162 C 205.228 210.922,204.408 210.792,203.553 210.873 L 202.000 211.021 201.953 208.611 C 201.927 207.285,201.783 205.660,201.633 205.000 C 201.353 203.764,201.776 202.554,202.764 201.767 C 203.223 201.401,203.128 201.279,202.254 201.112 C 201.664 201.000,201.103 201.034,201.007 201.188 M211.500 201.489 C 212.215 201.578,213.385 201.578,214.100 201.489 C 214.815 201.401,214.230 201.328,212.800 201.328 C 211.370 201.328,210.785 201.401,211.500 201.489 M246.800 204.400 C 246.800 204.840,246.980 205.200,247.200 205.200 C 248.179 205.200,247.624 208.886,246.500 209.853 C 244.760 211.349,236.419 211.058,236.403 209.500 C 236.401 209.335,236.040 209.200,235.600 209.200 C 235.160 209.200,234.800 209.020,234.800 208.800 C 234.800 208.580,234.530 208.400,234.200 208.400 C 233.870 208.400,233.600 208.503,233.600 208.629 C 233.600 209.021,234.722 210.000,235.171 210.000 C 235.407 210.000,235.600 210.180,235.600 210.400 C 235.600 210.620,236.050 210.800,236.600 210.800 C 237.150 210.800,237.600 210.980,237.600 211.200 C 237.600 211.441,239.267 211.600,241.800 211.600 C 244.333 211.600,246.000 211.441,246.000 211.200 C 246.000 210.980,246.260 210.800,246.577 210.800 C 248.185 210.800,249.181 205.524,247.829 204.171 C 247.053 203.396,246.800 203.453,246.800 204.400 M293.200 205.024 C 293.200 205.871,293.362 206.347,293.600 206.200 C 293.820 206.064,294.000 205.423,294.000 204.776 C 294.000 204.129,293.820 203.600,293.600 203.600 C 293.380 203.600,293.200 204.241,293.200 205.024 M230.000 205.600 C 230.000 205.820,230.360 206.000,230.800 206.000 C 231.261 206.000,231.600 206.267,231.600 206.629 C 231.600 206.974,231.857 207.514,232.171 207.829 C 233.519 209.176,233.590 207.854,232.253 206.300 C 231.325 205.222,230.000 204.810,230.000 205.600 M265.400 205.600 C 265.264 205.820,264.803 206.000,264.376 206.000 C 263.949 206.000,263.600 206.180,263.600 206.400 C 263.600 206.620,263.960 206.800,264.400 206.800 C 264.840 206.800,265.200 206.620,265.200 206.400 C 265.200 206.180,265.560 206.000,266.000 206.000 C 266.440 206.000,266.800 205.820,266.800 205.600 C 266.800 205.380,266.541 205.200,266.224 205.200 C 265.907 205.200,265.536 205.380,265.400 205.600 M261.062 207.531 C 260.165 208.523,260.228 210.120,261.200 211.000 C 262.091 211.806,262.239 211.571,261.541 210.455 C 260.881 209.397,261.426 207.600,262.408 207.600 C 262.843 207.600,263.200 207.420,263.200 207.200 C 263.200 206.531,261.766 206.753,261.062 207.531 M293.200 209.024 C 293.200 210.137,293.356 210.751,293.600 210.600 C 293.820 210.464,294.000 209.643,294.000 208.776 C 294.000 207.909,293.820 207.200,293.600 207.200 C 293.380 207.200,293.200 208.021,293.200 209.024 M225.302 209.535 C 224.368 210.561,223.603 211.707,223.602 212.083 C 223.600 212.856,227.875 217.200,228.637 217.200 C 228.910 217.200,229.214 217.425,229.312 217.700 C 229.410 217.975,229.627 218.074,229.793 217.919 C 230.145 217.592,229.065 216.400,228.415 216.400 C 227.749 216.400,225.200 213.715,225.200 213.013 C 225.200 212.676,225.020 212.400,224.800 212.400 C 223.912 212.400,224.491 211.050,226.000 209.600 C 226.880 208.754,227.600 207.959,227.600 207.831 C 227.600 207.268,226.879 207.802,225.302 209.535 M216.339 211.246 C 216.010 211.455,216.851 211.590,218.500 211.594 L 221.200 211.600 221.200 215.624 C 221.200 218.309,221.338 219.562,221.616 219.390 C 221.845 219.248,221.938 218.833,221.821 218.466 C 221.705 218.100,221.878 217.284,222.205 216.654 C 223.121 214.890,223.000 211.977,222.000 211.716 C 221.560 211.601,221.200 211.362,221.200 211.186 C 221.200 210.759,217.026 210.811,216.339 211.246 M210.100 211.476 C 210.485 211.576,211.115 211.576,211.500 211.476 C 211.885 211.375,211.570 211.293,210.800 211.293 C 210.030 211.293,209.715 211.375,210.100 211.476 M262.013 212.900 C 262.033 213.679,263.156 214.979,263.496 214.616 C 263.663 214.437,263.575 214.210,263.300 214.112 C 263.025 214.014,262.800 213.588,262.800 213.167 C 262.800 212.745,262.620 212.400,262.400 212.400 C 262.180 212.400,262.006 212.625,262.013 212.900 M290.461 215.455 C 289.725 216.225,289.185 216.918,289.262 216.995 C 289.451 217.185,290.401 216.401,291.570 215.089 C 292.989 213.495,292.033 213.811,290.461 215.455 M254.060 216.651 C 253.543 217.202,253.190 217.724,253.277 217.810 C 253.469 218.003,255.600 216.208,255.600 215.853 C 255.600 215.349,254.981 215.669,254.060 216.651 M265.200 216.629 C 265.200 217.053,266.436 218.097,266.667 217.867 C 266.792 217.741,266.617 217.360,266.276 217.019 C 265.641 216.384,265.200 216.224,265.200 216.629 M251.600 218.400 C 251.600 218.620,251.240 218.800,250.800 218.800 C 250.360 218.800,250.000 218.980,250.000 219.200 C 250.000 219.834,250.788 219.668,251.891 218.800 C 252.644 218.208,252.738 218.000,252.254 218.000 C 251.894 218.000,251.600 218.180,251.600 218.400 M232.400 219.200 C 232.400 219.420,232.760 219.600,233.200 219.600 C 233.640 219.600,234.000 219.420,234.000 219.200 C 234.000 218.980,233.640 218.800,233.200 218.800 C 232.760 218.800,232.400 218.980,232.400 219.200 M246.400 220.000 C 246.400 220.220,246.929 220.400,247.576 220.400 C 248.223 220.400,248.864 220.220,249.000 220.000 C 249.147 219.762,248.671 219.600,247.824 219.600 C 247.041 219.600,246.400 219.780,246.400 220.000 M271.852 220.085 C 272.127 220.529,273.105 220.477,273.398 220.003 C 273.540 219.774,273.223 219.640,272.651 219.688 C 272.105 219.733,271.745 219.912,271.852 220.085 M282.000 220.000 C 282.000 220.220,282.259 220.400,282.576 220.400 C 282.893 220.400,283.264 220.220,283.400 220.000 C 283.536 219.780,283.277 219.600,282.824 219.600 C 282.371 219.600,282.000 219.780,282.000 220.000 " stroke="none" fill="#0a84a5" fill-rule="evenodd"></path><path id="path4" d="M110.538 161.819 C 110.415 162.138,110.071 162.400,109.774 162.400 C 109.476 162.400,108.244 163.139,107.036 164.043 L 104.839 165.686 104.720 171.680 L 104.600 177.673 115.500 188.575 C 121.495 194.571,126.400 199.646,126.400 199.852 C 126.400 200.058,121.540 205.112,115.600 211.082 L 104.800 221.937 104.800 230.369 L 104.800 238.800 106.600 238.800 C 107.590 238.800,108.400 238.665,108.400 238.500 C 108.400 238.335,108.836 238.175,109.369 238.144 C 110.823 238.061,112.397 236.687,119.479 229.324 C 123.036 225.626,130.992 217.483,137.159 211.228 L 148.372 199.856 144.686 196.199 C 138.193 189.756,124.815 175.991,113.480 164.092 C 111.559 162.076,110.695 161.408,110.538 161.819 M143.000 163.233 C 142.120 163.881,140.815 164.866,140.100 165.422 L 138.800 166.434 138.800 171.676 L 138.800 176.919 150.200 188.273 C 156.470 194.518,161.600 199.801,161.600 200.015 C 161.600 200.228,156.650 205.389,150.600 211.483 L 139.600 222.564 139.640 229.582 C 139.689 238.239,139.762 238.561,141.716 238.724 C 142.573 238.796,143.200 238.669,143.200 238.424 C 143.200 238.191,143.662 238.000,144.226 238.000 C 144.791 238.000,145.642 237.792,146.118 237.537 C 147.084 237.020,179.568 204.373,179.588 203.900 C 179.594 203.735,179.735 203.598,179.900 203.597 C 180.065 203.595,180.854 202.973,181.653 202.216 C 182.452 201.459,183.217 200.950,183.353 201.086 C 183.489 201.222,183.600 200.893,183.600 200.355 C 183.600 199.795,183.226 199.125,182.726 198.788 C 180.980 197.612,147.967 163.928,147.439 162.783 C 146.904 161.622,144.913 161.824,143.000 163.233 M112.047 164.700 C 112.740 165.305,113.778 166.299,114.354 166.909 C 114.929 167.520,116.092 168.690,116.937 169.509 C 117.782 170.329,119.670 172.260,121.132 173.800 C 122.595 175.340,124.703 177.500,125.818 178.600 C 126.934 179.700,127.962 180.907,128.104 181.283 C 128.246 181.659,129.045 182.401,129.881 182.933 C 131.544 183.991,135.819 188.321,137.013 190.156 C 137.427 190.792,138.252 191.608,138.846 191.970 C 140.411 192.921,146.000 199.222,146.000 200.034 C 146.000 200.660,144.182 203.056,142.871 204.156 C 142.362 204.584,137.191 209.777,121.000 226.123 C 110.336 236.889,109.965 237.200,107.810 237.200 C 105.524 237.200,105.630 237.543,105.577 229.956 L 105.531 223.400 107.139 222.000 C 108.024 221.230,108.871 220.095,109.023 219.477 C 109.174 218.859,109.771 218.049,110.349 217.677 C 110.927 217.305,114.865 213.503,119.100 209.229 C 128.239 200.006,128.339 199.783,124.900 196.354 C 121.418 192.881,119.600 190.878,119.600 190.513 C 119.600 189.978,117.181 187.600,116.637 187.600 C 116.379 187.600,114.195 185.665,111.784 183.300 C 109.373 180.935,107.040 178.800,106.600 178.557 C 105.871 178.152,105.788 177.621,105.663 172.541 L 105.527 166.970 107.354 165.285 C 109.496 163.311,110.335 163.206,112.047 164.700 M147.828 165.500 C 148.821 166.545,149.901 167.895,150.227 168.500 C 150.553 169.105,150.990 169.600,151.197 169.600 C 151.572 169.600,154.544 172.053,157.200 174.556 C 157.970 175.281,159.590 177.099,160.800 178.596 C 162.010 180.092,163.429 181.695,163.953 182.158 C 168.121 185.838,175.018 192.873,175.632 194.071 C 176.047 194.880,176.733 195.652,177.156 195.786 C 178.180 196.111,181.200 199.415,181.200 200.210 C 181.200 200.556,180.777 201.235,180.261 201.719 C 179.744 202.204,179.109 203.003,178.849 203.495 C 178.589 203.988,177.927 204.503,177.377 204.642 C 176.827 204.780,176.157 205.297,175.889 205.791 C 174.957 207.504,169.034 213.626,168.076 213.867 C 167.484 214.015,166.899 214.622,166.556 215.445 C 166.249 216.180,165.485 217.046,164.858 217.370 C 164.231 217.694,163.405 218.438,163.021 219.024 C 161.833 220.837,156.254 226.475,155.282 226.845 C 154.776 227.037,154.104 227.811,153.789 228.564 C 153.475 229.317,152.628 230.342,151.909 230.843 C 151.189 231.343,149.401 232.988,147.935 234.499 C 145.292 237.224,145.253 237.246,143.338 237.123 C 140.591 236.948,140.281 236.142,140.348 229.354 C 140.408 223.394,140.674 222.465,142.622 221.416 C 143.371 221.013,144.099 220.304,144.240 219.842 C 144.566 218.776,154.471 208.958,155.575 208.608 C 156.027 208.464,156.861 207.556,157.427 206.590 C 157.993 205.624,159.037 204.323,159.747 203.700 C 163.241 200.632,163.263 199.263,159.865 196.242 C 158.470 195.003,157.100 193.561,156.821 193.038 C 156.541 192.516,155.885 191.859,155.363 191.580 C 154.840 191.301,154.316 190.766,154.197 190.392 C 154.079 190.018,152.549 188.513,150.798 187.048 C 149.047 185.582,146.683 183.262,145.544 181.891 C 144.405 180.521,142.978 179.098,142.373 178.728 C 140.231 177.419,139.025 168.594,140.713 166.581 C 143.408 163.368,145.499 163.050,147.828 165.500 " stroke="none" fill="#32c9eb" fill-rule="evenodd"></path></g></svg>